REM DIRINDEX 1\2,1\3,1\4,1\5,1\6,1\7,1\8
REM DIRNAME cjc152,folder01,folder02,folder03,folder04,folder05,folder06,folder07
TITLE ""
FILE "28_Ch6_RelaxingatHome_Tweets.mp3" MP3
  TRACK 01 AUDIO
    TITLE "0:"
    INDEX 01 00:00:00
  TRACK 02 AUDIO
    TITLE "8:cjc152_1535"
    INDEX 01 00:00:01
  TRACK 03 AUDIO
    TITLE "0:"
    INDEX 01 00:03:17
  TRACK 04 AUDIO
    TITLE "8:cjc152_1536"
    INDEX 01 00:04:01
  TRACK 05 AUDIO
    TITLE "0:"
    INDEX 01 00:05:36
  TRACK 06 AUDIO
    TITLE "4:cjc152_1537"
    INDEX 01 00:06:30
  TRACK 07 AUDIO
    TITLE "0:"
    INDEX 01 00:10:08
  TRACK 08 AUDIO
    TITLE "4:cjc152_1538"
    INDEX 01 00:10:74
  TRACK 09 AUDIO
    TITLE "0:"
    INDEX 01 00:13:71
  TRACK 10 AUDIO
    TITLE "4:cjc152_1539"
    INDEX 01 00:15:52
  TRACK 11 AUDIO
    TITLE "0:"
    INDEX 01 00:18:60
  TRACK 12 AUDIO
    TITLE "4:cjc152_1540"
    INDEX 01 00:19:52
  TRACK 13 AUDIO
    TITLE "0:"
    INDEX 01 00:24:27
  TRACK 14 AUDIO
    TITLE "4:cjc152_1541"
    INDEX 01 00:26:11
  TRACK 15 AUDIO
    TITLE "0:"
    INDEX 01 00:28:29
  TRACK 16 AUDIO
    TITLE "4:cjc152_1542"
    INDEX 01 00:29:21
  TRACK 17 AUDIO
    TITLE "0:"
    INDEX 01 00:31:47
  TRACK 18 AUDIO
    TITLE "4:cjc152_1543"
    INDEX 01 00:33:34
  TRACK 19 AUDIO
    TITLE "0:"
    INDEX 01 00:37:12
  TRACK 20 AUDIO
    TITLE "4:cjc152_1544"
    INDEX 01 00:38:22
  TRACK 21 AUDIO
    TITLE "0:"
    INDEX 01 00:42:31
  TRACK 22 AUDIO
    TITLE "4:cjc152_1545"
    INDEX 01 00:44:38
  TRACK 23 AUDIO
    TITLE "0:"
    INDEX 01 00:47:23
  TRACK 24 AUDIO
    TITLE "4:cjc152_1546"
    INDEX 01 00:48:12
  TRACK 25 AUDIO
    TITLE "0:"
    INDEX 01 00:50:58
  TRACK 26 AUDIO
    TITLE "4:cjc152_1547"
    INDEX 01 00:52:43
  TRACK 27 AUDIO
    TITLE "0:"
    INDEX 01 00:55:36
  TRACK 28 AUDIO
    TITLE "4:cjc152_1548"
    INDEX 01 00:56:29
  TRACK 29 AUDIO
    TITLE "0:"
    INDEX 01 00:59:65
  TRACK 30 AUDIO
    TITLE "4:cjc152_1549"
    INDEX 01 01:01:64
  TRACK 31 AUDIO
    TITLE "0:"
    INDEX 01 01:05:05
  TRACK 32 AUDIO
    TITLE "4:cjc152_1550"
    INDEX 01 01:06:04
  TRACK 33 AUDIO
    TITLE "0:"
    INDEX 01 01:08:66
  TRACK 34 AUDIO
    TITLE "4:cjc152_1551"
    INDEX 01 01:10:49
  TRACK 35 AUDIO
    TITLE "0:"
    INDEX 01 01:13:61
  TRACK 36 AUDIO
    TITLE "4:cjc152_1552"
    INDEX 01 01:14:55
  TRACK 37 AUDIO
    TITLE "0:"
    INDEX 01 01:17:41
  TRACK 38 AUDIO
    TITLE "4:cjc152_1553"
    INDEX 01 01:19:27
  TRACK 39 AUDIO
    TITLE "0:"
    INDEX 01 01:23:07
  TRACK 40 AUDIO
    TITLE "4:cjc152_1554"
    INDEX 01 01:24:00
  TRACK 41 AUDIO
    TITLE "0:"
    INDEX 01 01:29:01
  TRACK 42 AUDIO
    TITLE "4:cjc152_1555"
    INDEX 01 01:30:58
  TRACK 43 AUDIO
    TITLE "0:"
    INDEX 01 01:34:05
  TRACK 44 AUDIO
    TITLE "4:cjc152_1556"
    INDEX 01 01:34:71
  TRACK 45 AUDIO
    TITLE "0:"
    INDEX 01 01:38:36
  TRACK 46 AUDIO
    TITLE "4:cjc152_1557"
    INDEX 01 01:40:17
  TRACK 47 AUDIO
    TITLE "0:"
    INDEX 01 01:43:52
  TRACK 48 AUDIO
    TITLE "4:cjc152_1558"
    INDEX 01 01:44:42
  TRACK 49 AUDIO
    TITLE "0:"
    INDEX 01 01:47:07
  TRACK 50 AUDIO
    TITLE "4:cjc152_1559"
    INDEX 01 01:48:65
  TRACK 51 AUDIO
    TITLE "0:"
    INDEX 01 01:52:34
  TRACK 52 AUDIO
    TITLE "4:cjc152_1560"
    INDEX 01 01:53:27
  TRACK 53 AUDIO
    TITLE "0:"
    INDEX 01 01:57:37
  TRACK 54 AUDIO
    TITLE "4:cjc152_1561"
    INDEX 01 01:59:24
  TRACK 55 AUDIO
    TITLE "0:"
    INDEX 01 02:02:52
  TRACK 56 AUDIO
    TITLE "4:cjc152_1562"
    INDEX 01 02:03:45
  TRACK 57 AUDIO
    TITLE "0:"
    INDEX 01 02:08:07
  TRACK 58 AUDIO
    TITLE "4:cjc152_1563"
    INDEX 01 02:09:68
  TRACK 59 AUDIO
    TITLE "0:"
    INDEX 01 02:14:67
  TRACK 60 AUDIO
    TITLE "4:cjc152_1564"
    INDEX 01 02:15:58
  TRACK 61 AUDIO
    TITLE "0:"
    INDEX 01 02:21:59
  TRACK 62 AUDIO
    TITLE "4:cjc152_1565"
    INDEX 01 02:23:42
  TRACK 63 AUDIO
    TITLE "0:"
    INDEX 01 02:28:34
  TRACK 64 AUDIO
    TITLE "4:cjc152_1566"
    INDEX 01 02:29:19
  TRACK 65 AUDIO
    TITLE "0:"
    INDEX 01 02:34:38
  TRACK 66 AUDIO
    TITLE "4:cjc152_1567"
    INDEX 01 02:36:23
  TRACK 67 AUDIO
    TITLE "0:"
    INDEX 01 02:39:43
  TRACK 68 AUDIO
    TITLE "4:cjc152_1568"
    INDEX 01 02:40:37
  TRACK 69 AUDIO
    TITLE "0:"
    INDEX 01 02:43:37
  TRACK 70 AUDIO
    TITLE "4:cjc152_1569"
    INDEX 01 02:45:18
  TRACK 71 AUDIO
    TITLE "0:"
    INDEX 01 02:48:03
  TRACK 72 AUDIO
    TITLE "4:cjc152_1570"
    INDEX 01 02:49:02
  TRACK 73 AUDIO
    TITLE "0:"
    INDEX 01 02:52:01
  TRACK 74 AUDIO
    TITLE "4:cjc152_1571"
    INDEX 01 02:54:06
  TRACK 75 AUDIO
    TITLE "0:"
    INDEX 01 02:58:27
  TRACK 76 AUDIO
    TITLE "4:cjc152_1572"
    INDEX 01 02:59:30
  TRACK 77 AUDIO
    TITLE "0:"
    INDEX 01 03:03:48
  TRACK 78 AUDIO
    TITLE "4:cjc152_1573"
    INDEX 01 03:05:29
  TRACK 79 AUDIO
    TITLE "0:"
    INDEX 01 03:09:50
  TRACK 80 AUDIO
    TITLE "4:cjc152_1574"
    INDEX 01 03:10:42
  TRACK 81 AUDIO
    TITLE "0:"
    INDEX 01 03:14:42
  TRACK 82 AUDIO
    TITLE "4:cjc152_1575"
    INDEX 01 03:16:36
  TRACK 83 AUDIO
    TITLE "0:"
    INDEX 01 03:21:67
  TRACK 84 AUDIO
    TITLE "4:cjc152_1576"
    INDEX 01 03:22:63
  TRACK 85 AUDIO
    TITLE "0:"
    INDEX 01 03:27:70
  TRACK 86 AUDIO
    TITLE "4:cjc152_1577"
    INDEX 01 03:29:70
  TRACK 87 AUDIO
    TITLE "0:"
    INDEX 01 03:33:41
  TRACK 88 AUDIO
    TITLE "4:cjc152_1578"
    INDEX 01 03:34:34
  TRACK 89 AUDIO
    TITLE "0:"
    INDEX 01 03:37:45
  TRACK 90 AUDIO
    TITLE "4:cjc152_1579"
    INDEX 01 03:39:28
  TRACK 91 AUDIO
    TITLE "0:"
    INDEX 01 03:42:18
  TRACK 92 AUDIO
    TITLE "4:cjc152_1580"
    INDEX 01 03:43:10
  TRACK 93 AUDIO
    TITLE "0:"
    INDEX 01 03:47:04
  TRACK 94 AUDIO
    TITLE "4:cjc152_1581"
    INDEX 01 03:48:62
  TRACK 95 AUDIO
    TITLE "0:"
    INDEX 01 03:51:27
  TRACK 96 AUDIO
    TITLE "4:cjc152_1582"
    INDEX 01 03:52:23
  TRACK 97 AUDIO
    TITLE "0:"
    INDEX 01 03:55:39
  TRACK 98 AUDIO
    TITLE "4:cjc152_1583"
    INDEX 01 03:57:20
  TRACK 99 AUDIO
    TITLE "0:"
    INDEX 01 04:00:46
  TRACK 100 AUDIO
    TITLE "4:cjc152_1584"
    INDEX 01 04:01:35
  TRACK 101 AUDIO
    TITLE "0:"
    INDEX 01 04:05:11
  TRACK 102 AUDIO
    TITLE "4:cjc152_1585"
    INDEX 01 04:06:72
  TRACK 103 AUDIO
    TITLE "0:"
    INDEX 01 04:11:30
  TRACK 104 AUDIO
    TITLE "4:cjc152_1586"
    INDEX 01 04:12:21
  TRACK 105 AUDIO
    TITLE "0:"
    INDEX 01 04:16:47
  TRACK 106 AUDIO
    TITLE "4:cjc152_1587"
    INDEX 01 04:18:26
  TRACK 107 AUDIO
    TITLE "0:"
    INDEX 01 04:22:49
  TRACK 108 AUDIO
    TITLE "4:cjc152_1588"
    INDEX 01 04:23:41
  TRACK 109 AUDIO
    TITLE "0:"
    INDEX 01 04:29:30
  TRACK 110 AUDIO
    TITLE "4:cjc152_1589"
    INDEX 01 04:31:11
  TRACK 111 AUDIO
    TITLE "0:"
    INDEX 01 04:32:53
  TRACK 112 AUDIO
    TITLE "4:cjc152_1590"
    INDEX 01 04:33:53
  TRACK 113 AUDIO
    TITLE "0:"
    INDEX 01 04:34:42
  TRACK 114 AUDIO
    TITLE "4:cjc152_1591"
    INDEX 01 04:36:24
  TRACK 115 AUDIO
    TITLE "0:"
    INDEX 01 04:39:61
  TRACK 116 AUDIO
    TITLE "4:cjc152_1592"
    INDEX 01 04:40:55
  TRACK 117 AUDIO
    TITLE "0:"
    INDEX 01 04:45:01
  TRACK 118 AUDIO
    TITLE "4:cjc152_1593"
    INDEX 01 04:46:59
  TRACK 119 AUDIO
    TITLE "0:"
    INDEX 01 04:51:45
  TRACK 120 AUDIO
    TITLE "4:cjc152_1594"
    INDEX 01 04:52:48
  TRACK 121 AUDIO
    TITLE "0:"
    INDEX 01 04:57:30
  TRACK 122 AUDIO
    TITLE "4:cjc152_1595"
    INDEX 01 04:59:37
  TRACK 123 AUDIO
    TITLE "0:"
    INDEX 01 05:03:30
  TRACK 124 AUDIO
    TITLE "4:cjc152_1596"
    INDEX 01 05:04:24
  TRACK 125 AUDIO
    TITLE "0:"
    INDEX 01 05:07:56
  TRACK 126 AUDIO
    TITLE "4:cjc152_1597"
    INDEX 01 05:09:37
  TRACK 127 AUDIO
    TITLE "0:"
    INDEX 01 05:13:33
  TRACK 128 AUDIO
    TITLE "4:cjc152_1598"
    INDEX 01 05:14:24
  TRACK 129 AUDIO
    TITLE "0:"
    INDEX 01 05:18:42
  TRACK 130 AUDIO
    TITLE "4:cjc152_1599"
    INDEX 01 05:20:27
  TRACK 131 AUDIO
    TITLE "0:"
    INDEX 01 05:22:49
  TRACK 132 AUDIO
    TITLE "4:cjc152_1600"
    INDEX 01 05:23:41
  TRACK 133 AUDIO
    TITLE "0:"
    INDEX 01 05:26:37
  TRACK 134 AUDIO
    TITLE "4:cjc152_1601"
    INDEX 01 05:28:23
  TRACK 135 AUDIO
    TITLE "0:"
    INDEX 01 05:31:58
  TRACK 136 AUDIO
    TITLE "4:cjc152_1602"
    INDEX 01 05:32:56
  TRACK 137 AUDIO
    TITLE "0:"
    INDEX 01 05:36:48
  TRACK 138 AUDIO
    TITLE "4:cjc152_1603"
    INDEX 01 05:38:33
  TRACK 139 AUDIO
    TITLE "0:"
    INDEX 01 05:41:25
  TRACK 140 AUDIO
    TITLE "4:cjc152_1604"
    INDEX 01 05:42:17
  TRACK 141 AUDIO
    TITLE "0:"
    INDEX 01 05:45:31
  TRACK 142 AUDIO
    TITLE "4:cjc152_1605"
    INDEX 01 05:47:14
  TRACK 143 AUDIO
    TITLE "0:"
    INDEX 01 05:50:52
  TRACK 144 AUDIO
    TITLE "4:cjc152_1606"
    INDEX 01 05:51:53
  TRACK 145 AUDIO
    TITLE "0:"
    INDEX 01 05:56:17
  TRACK 146 AUDIO
    TITLE "4:cjc152_1607"
    INDEX 01 05:58:00
  TRACK 147 AUDIO
    TITLE "0:"
    INDEX 01 06:03:39
  TRACK 148 AUDIO
    TITLE "4:cjc152_1608"
    INDEX 01 06:04:28
  TRACK 149 AUDIO
    TITLE "0:"
    INDEX 01 06:07:42
  TRACK 150 AUDIO
    TITLE "4:cjc152_1609"
    INDEX 01 06:09:23
  TRACK 151 AUDIO
    TITLE "0:"
    INDEX 01 06:14:29
  TRACK 152 AUDIO
    TITLE "4:cjc152_1610"
    INDEX 01 06:15:20
  TRACK 153 AUDIO
    TITLE "0:"
    INDEX 01 06:19:73
  TRACK 154 AUDIO
    TITLE "4:cjc152_1611"
    INDEX 01 06:21:58
  TRACK 155 AUDIO
    TITLE "0:"
    INDEX 01 06:27:19
  TRACK 156 AUDIO
    TITLE "4:cjc152_1612"
    INDEX 01 06:28:11
  TRACK 157 AUDIO
    TITLE "0:"
    INDEX 01 06:34:65
  TRACK 158 AUDIO
    TITLE "4:cjc152_1613"
    INDEX 01 06:36:58
  TRACK 159 AUDIO
    TITLE "0:"
    INDEX 01 06:40:61
  TRACK 160 AUDIO
    TITLE "4:cjc152_1614"
    INDEX 01 06:41:53
  TRACK 161 AUDIO
    TITLE "0:"
    INDEX 01 06:46:30
  TRACK 162 AUDIO
    TITLE "4:cjc152_1615"
    INDEX 01 06:48:16
  TRACK 163 AUDIO
    TITLE "0:"
    INDEX 01 06:50:64
  TRACK 164 AUDIO
    TITLE "4:cjc152_1616"
    INDEX 01 06:51:55
  TRACK 165 AUDIO
    TITLE "0:"
    INDEX 01 06:55:33
  TRACK 166 AUDIO
    TITLE "4:cjc152_1617"
    INDEX 01 06:57:19
  TRACK 167 AUDIO
    TITLE "0:"
    INDEX 01 07:00:07
  TRACK 168 AUDIO
    TITLE "4:cjc152_1618"
    INDEX 01 07:01:03
  TRACK 169 AUDIO
    TITLE "0:"
    INDEX 01 07:03:68
